<svg width="257" height="118" viewBox="0 0 257 118" fill="none" xmlns="http://www.w3.org/2000/svg">
<rect width="256.335" height="117.487" fill="white"/>
<path d="M58.167 68C59.7489 68 60.5398 67.0146 60.5398 65.0437V43.7269C60.5398 41.756 59.7489 40.7706 58.167 40.7706H74.7769L76.3718 43.1434C75.2307 41.8209 73.6488 41.1596 71.6261 41.1596H63.6518V53.335H68.2808C70.2517 53.335 71.2371 52.5441 71.2371 50.9622V56.0969C71.2371 54.515 70.2517 53.724 68.2808 53.724H63.6518V67.611H72.4819C73.4673 67.611 74.4009 67.3906 75.2826 66.9497C76.1903 66.4829 76.9293 65.9124 77.4999 65.2382L75.6327 68H58.167ZM83.5663 65.0437C83.5663 67.0146 84.3573 68 85.9392 68H78.0815C79.6634 68 80.4544 67.0146 80.4544 65.0437V43.7269C80.4544 41.756 79.6634 40.7706 78.0815 40.7706H86.9894C90.3088 40.7706 93.0447 41.4708 95.1972 42.8711C97.3755 44.2715 98.4647 46.4239 98.4647 49.3284C98.4647 52.2329 97.3755 54.3853 95.1972 55.7857C93.0447 57.186 90.3088 57.8862 86.9894 57.8862H83.5663V65.0437ZM86.4837 57.4972C89.1808 57.4972 91.3072 56.797 92.8632 55.3967C94.4192 53.9704 95.1972 51.9476 95.1972 49.3284C95.1972 46.7092 94.4192 44.6994 92.8632 43.299C91.3072 41.8727 89.1808 41.1596 86.4837 41.1596H83.5663V57.4972H86.4837ZM112.127 68C113.216 68 113.761 67.5462 113.761 66.6385C113.761 66.2495 113.67 65.8216 113.488 65.3549L109.793 55.7857C107.044 55.8375 104.866 56.408 103.258 57.4972C101.65 58.5864 100.574 59.909 100.029 61.4649L98.5899 65.5494C98.4602 65.8605 98.3954 66.2106 98.3954 66.5996C98.3954 67.0664 98.538 67.4165 98.8233 67.6499C99.1345 67.8833 99.5624 68 100.107 68H94.9723C95.6984 68 96.3467 67.8055 96.9172 67.4165C97.4878 67.0016 97.9156 66.3792 98.2009 65.5494L106.875 40.7706H107.264L116.756 65.7827C117.041 66.5348 117.469 67.0924 118.039 67.4554C118.636 67.8185 119.284 68 119.984 68H112.127ZM100.768 59.3644C101.65 58.1715 102.843 57.2249 104.347 56.5247C105.851 55.8246 107.615 55.4485 109.637 55.3967L105.708 45.2051L100.768 59.3644ZM129.614 68.6224C128.473 68.6224 127.332 68.4798 126.191 68.1945C125.076 67.9352 124.064 67.5721 123.157 67.1053C122.69 66.846 122.236 66.7163 121.795 66.7163C121.355 66.7163 121.017 66.8719 120.784 67.1831L121.718 61.4649C121.769 62.7097 122.158 63.8508 122.885 64.8881C123.637 65.9254 124.609 66.7423 125.802 67.3387C126.995 67.9352 128.266 68.2334 129.614 68.2334C131.092 68.2334 132.35 67.9741 133.387 67.4554C134.425 66.9108 135.19 66.2366 135.682 65.4327C136.201 64.6028 136.46 63.773 136.46 62.9431C136.46 62.1133 136.175 61.3223 135.605 60.5703C135.06 59.7923 134.373 59.0791 133.543 58.4308C132.713 57.7825 131.559 56.9397 130.081 55.9024C128.343 54.7095 126.93 53.6721 125.841 52.7904C124.778 51.9087 123.87 50.8973 123.118 49.7563C122.366 48.6152 121.99 47.3705 121.99 46.022C121.99 44.2585 122.69 42.8452 124.09 41.782C125.517 40.6928 127.488 40.1482 130.003 40.1482C131.352 40.1482 132.389 40.2649 133.115 40.4983C133.867 40.7057 134.878 41.0947 136.149 41.6653C136.72 41.9505 137.212 42.0932 137.627 42.0932C138.042 42.0932 138.328 41.9765 138.483 41.7431L137.588 47.15C137.64 45.8534 137.329 44.7124 136.655 43.7269C136.007 42.7155 135.086 41.9376 133.893 41.393C132.726 40.8224 131.429 40.5372 130.003 40.5372C128.343 40.5372 127.008 40.9002 125.996 41.6264C124.985 42.3265 124.479 43.3639 124.479 44.7383C124.479 45.8015 124.804 46.8 125.452 47.7335C126.126 48.6671 126.943 49.5229 127.903 50.3009C128.862 51.0529 130.146 51.9735 131.754 53.0627C133.361 54.1519 134.632 55.0725 135.566 55.8246C136.525 56.5766 137.329 57.4065 137.977 58.3141C138.626 59.2218 138.95 60.1942 138.95 61.2315C138.95 62.7616 138.548 64.0842 137.744 65.1993C136.94 66.3144 135.825 67.1702 134.399 67.7666C132.972 68.3371 131.378 68.6224 129.614 68.6224ZM159.064 55.5912C161.761 55.5912 163.887 54.9688 165.443 53.724C166.999 52.4792 167.777 50.6899 167.777 48.3559C167.777 46.022 166.999 44.2326 165.443 42.9878C163.887 41.7431 161.773 41.1207 159.102 41.1207L159.064 41.1596H146.577V55.5912H151.206C153.177 55.5912 154.162 54.8002 154.162 53.2183V58.353C154.162 56.7711 153.177 55.9802 151.206 55.9802H146.577V67.611H155.407C156.392 67.611 157.326 67.3906 158.208 66.9497C159.115 66.4829 159.854 65.9124 160.425 65.2382L158.558 68H141.092C142.674 68 143.465 67.0146 143.465 65.0437V43.7269C143.465 41.756 142.674 40.7706 141.092 40.7706H159.569C162.889 40.7706 165.625 41.393 167.777 42.6377C169.955 43.8566 171.044 45.7626 171.044 48.3559C171.044 50.1453 170.5 51.6105 169.411 52.7515C168.347 53.8926 166.882 54.7354 165.015 55.28L169.955 65.5494C170.344 66.3533 170.837 66.9627 171.433 67.3776C172.056 67.7925 172.613 68 173.106 68H165.637C166.597 68 167.077 67.598 167.077 66.7941C167.077 66.3273 166.947 65.8216 166.688 65.2771L162.175 55.8246C161.423 55.9283 160.555 55.9802 159.569 55.9802H159.064V55.5912ZM185.739 68.6224C183.457 68.6224 181.421 68 179.631 66.7552C177.842 65.4845 176.442 63.773 175.43 61.6205C174.419 59.4681 173.913 57.0953 173.913 54.502C173.913 51.9087 174.419 49.5229 175.43 47.3445C176.442 45.1403 177.842 43.3898 179.631 42.0932C181.447 40.7965 183.495 40.1482 185.778 40.1482C188.034 40.1482 190.095 40.7965 191.962 42.0932C193.83 43.3898 195.295 45.1403 196.358 47.3445C197.447 49.5488 197.992 51.9346 197.992 54.502C197.992 57.0693 197.447 59.4422 196.358 61.6205C195.295 63.773 193.83 65.4845 191.962 66.7552C190.095 68 188.021 68.6224 185.739 68.6224ZM177.181 54.502C177.181 56.6803 177.492 58.8328 178.114 60.9593C178.763 63.0598 179.735 64.7973 181.032 66.1717C182.328 67.5462 183.897 68.2334 185.739 68.2334C187.58 68.2334 189.175 67.5462 190.523 66.1717C191.898 64.7714 192.935 63.0209 193.635 60.9204C194.361 58.7939 194.724 56.6544 194.724 54.502C194.724 52.557 194.361 50.4954 193.635 48.317C192.935 46.1127 191.898 44.2715 190.523 42.7933C189.175 41.2892 187.593 40.5372 185.778 40.5372C183.936 40.5372 182.367 41.2892 181.071 42.7933C179.774 44.2715 178.802 46.0998 178.153 48.2781C177.505 50.4305 177.181 52.5052 177.181 54.502Z" fill="black"/>
<path d="M61.4835 85.1891C61.4835 85.9077 61.7718 86.267 62.3486 86.267H59.4837C60.0605 86.267 60.3489 85.9077 60.3489 85.1891V77.4172C60.3489 76.6986 60.0605 76.3393 59.4837 76.3393H62.7315C63.9418 76.3393 64.9393 76.5662 65.724 77.0201C66.5182 77.4644 66.9153 78.1594 66.9153 79.1049C66.9153 79.7573 66.7168 80.2915 66.3197 80.7075C65.932 81.1235 65.3978 81.4308 64.7171 81.6294L66.5182 85.3735C66.679 85.6666 66.8681 85.8888 67.0855 86.0401C67.303 86.1914 67.4968 86.267 67.667 86.267H64.944C65.2938 86.267 65.4687 86.1205 65.4687 85.8274C65.4687 85.6572 65.4215 85.4728 65.3269 85.2742L63.6817 81.8279C63.4076 81.8657 63.0908 81.8846 62.7315 81.8846H61.4835V85.1891ZM62.5472 81.7428C63.5305 81.7428 64.3058 81.5159 64.8731 81.0621C65.4404 80.6082 65.724 79.9558 65.724 79.1049C65.724 78.2539 65.4404 77.6015 64.8731 77.1477C64.3058 76.6939 63.5352 76.4669 62.5613 76.4669L62.5472 76.4811H61.4835V81.7428H62.5472ZM73.9858 86.267C74.5626 86.267 74.851 85.9077 74.851 85.1891V77.4172C74.851 76.6986 74.5626 76.3393 73.9858 76.3393H80.0418L80.6232 77.2044C80.2072 76.7222 79.6305 76.4811 78.893 76.4811H75.9856V80.9202H77.6733C78.3919 80.9202 78.7511 80.6319 78.7511 80.0551V81.9272C78.7511 81.3504 78.3919 81.0621 77.6733 81.0621H75.9856V86.1252H79.205C79.5643 86.1252 79.9047 86.0448 80.2261 85.8841C80.557 85.7139 80.8265 85.5059 81.0345 85.2601L80.3538 86.267H73.9858ZM93.1136 86.267C93.5108 86.267 93.7093 86.1016 93.7093 85.7706C93.7093 85.6288 93.6762 85.4728 93.61 85.3026L92.2627 81.8137C91.2605 81.8326 90.4663 82.0406 89.88 82.4378C89.2938 82.8349 88.9015 83.3171 88.7029 83.8844L88.1782 85.3735C88.1309 85.487 88.1072 85.6146 88.1072 85.7564C88.1072 85.9266 88.1592 86.0543 88.2632 86.1394C88.3767 86.2245 88.5327 86.267 88.7313 86.267H86.8592C87.1239 86.267 87.3603 86.1961 87.5683 86.0543C87.7763 85.903 87.9323 85.6761 88.0363 85.3735L91.199 76.3393H91.3408L94.8014 85.4586C94.9054 85.7328 95.0614 85.9361 95.2694 86.0685C95.4868 86.2008 95.7232 86.267 95.9785 86.267H93.1136ZM88.9724 83.1185C89.2938 82.6836 89.7288 82.3385 90.2772 82.0832C90.8255 81.8279 91.4685 81.6908 92.206 81.6719L90.7735 77.9561L88.9724 83.1185ZM102.159 86.267C102.736 86.267 103.024 85.9077 103.024 85.1891V77.4172C103.024 76.6986 102.736 76.3393 102.159 76.3393H105.024C104.447 76.3393 104.159 76.6986 104.159 77.4172V86.1252H106.797C107.156 86.1252 107.496 86.0448 107.818 85.8841C108.149 85.7139 108.418 85.5059 108.626 85.2601L107.945 86.267H102.159ZM123.878 86.267C124.455 86.267 124.743 85.9077 124.743 85.1891V77.4172C124.743 76.6986 124.455 76.3393 123.878 76.3393H129.934L130.516 77.2044C130.099 76.7222 129.523 76.4811 128.785 76.4811H125.878V80.9202H127.566C128.284 80.9202 128.643 80.6319 128.643 80.0551V81.9272C128.643 81.3504 128.284 81.0621 127.566 81.0621H125.878V86.1252H129.097C129.457 86.1252 129.797 86.0448 130.118 85.8841C130.449 85.7139 130.719 85.5059 130.927 85.2601L130.246 86.267H123.878ZM140.39 86.4939C139.974 86.4939 139.558 86.4419 139.142 86.3379C138.735 86.2434 138.366 86.111 138.035 85.9408C137.865 85.8463 137.7 85.799 137.539 85.799C137.378 85.799 137.255 85.8557 137.17 85.9692L137.511 83.8844C137.53 84.3382 137.671 84.7542 137.936 85.1324C138.21 85.5106 138.565 85.8084 139 86.0259C139.435 86.2434 139.898 86.3521 140.39 86.3521C140.929 86.3521 141.387 86.2576 141.765 86.0685C142.144 85.8699 142.423 85.6241 142.602 85.331C142.791 85.0284 142.886 84.7259 142.886 84.4233C142.886 84.1207 142.782 83.8324 142.574 83.5582C142.375 83.2745 142.125 83.0145 141.822 82.7781C141.52 82.5418 141.099 82.2345 140.56 81.8563C139.926 81.4213 139.411 81.0431 139.014 80.7217C138.626 80.4002 138.295 80.0315 138.021 79.6154C137.747 79.1994 137.61 78.7456 137.61 78.2539C137.61 77.611 137.865 77.0957 138.376 76.708C138.896 76.3109 139.614 76.1124 140.532 76.1124C141.023 76.1124 141.401 76.1549 141.666 76.24C141.94 76.3157 142.309 76.4575 142.772 76.6655C142.98 76.7695 143.16 76.8215 143.311 76.8215C143.463 76.8215 143.567 76.779 143.623 76.6939L143.297 78.6652C143.316 78.1925 143.203 77.7765 142.957 77.4172C142.72 77.0484 142.385 76.7648 141.95 76.5662C141.524 76.3582 141.052 76.2542 140.532 76.2542C139.926 76.2542 139.439 76.3866 139.071 76.6513C138.702 76.9066 138.518 77.2848 138.518 77.7859C138.518 78.1736 138.636 78.5376 138.872 78.878C139.118 79.2183 139.416 79.5304 139.766 79.814C140.116 80.0882 140.584 80.4238 141.17 80.821C141.756 81.2181 142.219 81.5537 142.56 81.8279C142.909 82.1021 143.203 82.4047 143.439 82.7356C143.675 83.0665 143.793 83.4211 143.793 83.7993C143.793 84.3571 143.647 84.8393 143.354 85.2459C143.061 85.6524 142.654 85.9645 142.134 86.1819C141.614 86.3899 141.033 86.4939 140.39 86.4939ZM152.548 86.267C153.125 86.267 153.414 85.9077 153.414 85.1891V76.4811H151.726C151.367 76.4811 151.021 76.5662 150.69 76.7364C150.369 76.8971 150.104 77.1004 149.896 77.3463L150.577 76.3393H157.385L158.065 77.3463C157.857 77.1004 157.588 76.8971 157.257 76.7364C156.935 76.5662 156.595 76.4811 156.236 76.4811H154.548V85.1891C154.548 85.9077 154.836 86.267 155.413 86.267H152.548ZM168.575 86.267C168.972 86.267 169.171 86.1016 169.171 85.7706C169.171 85.6288 169.138 85.4728 169.072 85.3026L167.724 81.8137C166.722 81.8326 165.928 82.0406 165.342 82.4378C164.756 82.8349 164.363 83.3171 164.165 83.8844L163.64 85.3735C163.593 85.487 163.569 85.6146 163.569 85.7564C163.569 85.9266 163.621 86.0543 163.725 86.1394C163.838 86.2245 163.994 86.267 164.193 86.267H162.321C162.586 86.267 162.822 86.1961 163.03 86.0543C163.238 85.903 163.394 85.6761 163.498 85.3735L166.661 76.3393H166.803L170.263 85.4586C170.367 85.7328 170.523 85.9361 170.731 86.0685C170.949 86.2008 171.185 86.267 171.44 86.267H168.575ZM164.434 83.1185C164.756 82.6836 165.19 82.3385 165.739 82.0832C166.287 81.8279 166.93 81.6908 167.668 81.6719L166.235 77.9561L164.434 83.1185ZM178.353 86.267C178.93 86.267 179.218 85.9077 179.218 85.1891V76.4811H177.531C177.171 76.4811 176.826 76.5662 176.495 76.7364C176.174 76.8971 175.909 77.1004 175.701 77.3463L176.382 76.3393H183.189L183.87 77.3463C183.662 77.1004 183.393 76.8971 183.062 76.7364C182.74 76.5662 182.4 76.4811 182.041 76.4811H180.353V85.1891C180.353 85.9077 180.641 86.267 181.218 86.267H178.353ZM190.045 86.267C190.622 86.267 190.91 85.9077 190.91 85.1891V77.4172C190.91 76.6986 190.622 76.3393 190.045 76.3393H196.101L196.683 77.2044C196.267 76.7222 195.69 76.4811 194.952 76.4811H192.045V80.9202H193.733C194.451 80.9202 194.811 80.6319 194.811 80.0551V81.9272C194.811 81.3504 194.451 81.0621 193.733 81.0621H192.045V86.1252H195.264C195.624 86.1252 195.964 86.0448 196.286 85.8841C196.617 85.7139 196.886 85.5059 197.094 85.2601L196.413 86.267H190.045Z" fill="black"/>
<g clip-path="url(#clip0_3_13241)">
<path d="M173.821 41.4745C173.061 40.4619 172.36 39.6234 171.769 38.713C169.907 35.8686 170.095 33.0043 171.766 30.133C173.215 27.6431 175.099 25.4956 176.97 23.3385C177.372 22.9062 177.733 22.4377 178.05 21.9389C176.654 23.0233 175.239 24.0977 173.846 25.1936C171.797 26.8107 169.708 28.3961 168.035 30.4285C167.399 31.1759 166.893 32.0266 166.537 32.9446C166.043 34.3099 166.498 35.5801 167.403 36.6799C168.819 38.4005 170.667 39.555 172.518 40.7096C172.905 40.9505 173.298 41.1693 173.821 41.4745Z" fill="black"/>
<path d="M173.028 39.3274C173.942 40.6779 174.617 41.6238 175.871 42.2287C176.766 42.6595 177.632 43.1536 178.528 43.5867C178.688 43.6636 178.926 43.5837 179.195 43.573C179.221 43.796 179.373 44.001 179.515 44.0726C179.912 44.2578 179.974 44.3112 180.221 44.42C182.223 45.2989 184.228 46.1734 186.235 47.0436L186.294 46.9148C185.506 46.5174 184.699 46.1569 183.938 45.7118C181.851 44.4958 179.777 43.259 177.715 42.0011C177.383 41.7994 177.136 41.6365 176.827 42.0194C176.764 42.0684 176.69 42.1013 176.612 42.1153C176.534 42.1294 176.454 42.1241 176.378 42.1C176.1 41.9766 175.83 41.8345 175.57 41.6744L175.58 41.509C175.766 41.5068 175.955 41.5114 176.141 41.5025C176.291 41.4936 176.441 41.4667 176.588 41.4487C176.546 41.3047 176.479 41.1694 176.391 41.0487C175.588 40.3095 174.763 39.6048 173.968 38.8547C173.687 38.5933 173.35 38.2882 173.081 38.014C172.829 37.7894 172.659 37.6521 172.42 37.3505L172.14 37.06C172.079 38.0657 172.494 38.5394 173.028 39.3274C172.812 38.7829 173.785 39.1689 174.008 39.5929C174.06 39.6902 173.339 39.243 173.331 39.3749C173.204 39.3665 173.732 39.9399 173.618 39.8834C173.614 39.8803 173.611 39.8772 173.607 39.8741C173.407 39.698 173.209 39.5237 173.028 39.3274Z" fill="black"/>
<path d="M173.028 39.3274C172.812 38.7829 173.785 39.1689 174.008 39.5929C174.06 39.6902 173.339 39.243 173.331 39.3749C173.204 39.3665 173.732 39.9399 173.618 39.8834L173.607 39.8741C173.407 39.698 173.209 39.5237 173.028 39.3274Z" fill="black"/>
<path d="M177.715 42.0011C177.383 41.7994 177.136 41.6365 176.827 42.0194C176.764 42.0684 176.69 42.1013 176.612 42.1153C176.534 42.1294 176.454 42.1241 176.378 42.1C176.1 41.9766 175.83 41.8345 175.57 41.6744L175.58 41.509C175.766 41.5068 175.955 41.5114 176.141 41.5025C176.291 41.4936 176.441 41.4667 176.588 41.4487C176.546 41.3047 176.479 41.1694 176.391 41.0487L177.715 42.0011Z" fill="black"/>
<path d="M178.528 43.5867C178.688 43.6636 178.926 43.5837 179.195 43.573C179.221 43.796 179.373 44.001 179.515 44.0726L178.528 43.5867Z" fill="black"/>
<path d="M167.121 36.8897C165.948 35.4844 165.928 33.7942 165.908 32.1061C165.918 31.7709 165.853 31.4377 165.718 31.1315C165.583 30.8254 165.381 30.5543 165.127 30.3386C164.942 30.153 164.706 30.0275 164.45 29.9785C164.194 29.9295 163.929 29.9591 163.689 30.0635C163.085 30.3389 162.522 30.7019 161.874 31.0644C162.072 31.167 162.281 31.2465 162.497 31.3016C163.157 31.384 163.462 31.8353 163.715 32.3822C164.08 33.1713 164.427 33.9773 164.858 34.7278C165.396 35.6495 166.18 36.3987 167.121 36.8897Z" fill="black"/>
</g>
<defs>
<clipPath id="clip0_3_13241">
<rect width="25.3318" height="24.5642" fill="white" transform="matrix(-0.998187 -0.0601842 -0.0601842 0.998187 187.764 22.5244)"/>
</clipPath>
</defs>
</svg>
