<svg width="106" height="46" viewBox="0 0 106 46" fill="none" xmlns="http://www.w3.org/2000/svg">
<path d="M0.870549 29C2.05063 29 2.64067 28.2649 2.64067 26.7946V10.8926C2.64067 9.42232 2.05063 8.68719 0.870549 8.68719H13.2614L14.4511 10.4573C13.5999 9.47068 12.4198 8.97737 10.9109 8.97737H4.96213V18.0601H8.41531C9.88557 18.0601 10.6207 17.4701 10.6207 16.29V20.1204C10.6207 18.9403 9.88557 18.3503 8.41531 18.3503H4.96213V28.7098H11.5493C12.2844 28.7098 12.9809 28.5454 13.6386 28.2165C14.3157 27.8683 14.867 27.4427 15.2926 26.9397L13.8998 29H0.870549ZM19.8181 26.7946C19.8181 28.2649 20.4082 29 21.5883 29H15.7266C16.9066 29 17.4967 28.2649 17.4967 26.7946V10.8926C17.4967 9.42232 16.9066 8.68719 15.7266 8.68719H22.3718C24.848 8.68719 26.8889 9.20951 28.4946 10.2542C30.1196 11.2988 30.9322 12.9045 30.9322 15.0712C30.9322 17.2379 30.1196 18.8436 28.4946 19.8883C26.8889 20.9329 24.848 21.4552 22.3718 21.4552H19.8181V26.7946ZM21.9945 21.1651C24.0065 21.1651 25.5928 20.6427 26.7535 19.5981C27.9142 18.5341 28.4946 17.0251 28.4946 15.0712C28.4946 13.1173 27.9142 11.618 26.7535 10.5734C25.5928 9.50937 24.0065 8.97737 21.9945 8.97737H19.8181V21.1651H21.9945ZM41.1239 29C41.9364 29 42.3427 28.6615 42.3427 27.9844C42.3427 27.6942 42.275 27.375 42.1396 27.0268L39.3828 19.8883C37.3322 19.9269 35.7072 20.3525 34.5078 21.1651C33.3083 21.9776 32.5055 22.9642 32.0992 24.1249L31.0256 27.1718C30.9288 27.404 30.8805 27.6652 30.8805 27.9553C30.8805 28.3036 30.9869 28.5647 31.1997 28.7388C31.4318 28.9129 31.751 29 32.1573 29H28.3269C28.8685 29 29.3522 28.8549 29.7778 28.5647C30.2034 28.2552 30.5226 27.7909 30.7354 27.1718L37.2065 8.68719H37.4966L44.5771 27.346C44.7899 27.907 45.1091 28.3229 45.5347 28.5937C45.9797 28.8646 46.4633 29 46.9856 29H41.1239ZM32.6506 22.5579C33.3083 21.668 34.1982 20.9619 35.3203 20.4396C36.4423 19.9173 37.7578 19.6368 39.2668 19.5981L36.3359 11.9953L32.6506 22.5579ZM54.1692 29.4643C53.318 29.4643 52.4668 29.3579 51.6156 29.1451C50.7838 28.9516 50.0293 28.6808 49.3522 28.3326C49.004 28.1391 48.6654 28.0424 48.3366 28.0424C48.0077 28.0424 47.7562 28.1585 47.5821 28.3906L48.2785 24.1249C48.3172 25.0535 48.6074 25.9047 49.1491 26.6785C49.7101 27.4524 50.4356 28.0617 51.3254 28.5067C52.2153 28.9516 53.1633 29.1741 54.1692 29.1741C55.2719 29.1741 56.2102 28.9807 56.984 28.5937C57.7578 28.1875 58.3285 27.6845 58.6961 27.0848C59.083 26.4657 59.2765 25.8467 59.2765 25.2276C59.2765 24.6086 59.0637 24.0185 58.6381 23.4575C58.2318 22.8771 57.7191 22.3451 57.1001 21.8615C56.481 21.3779 55.6202 20.7491 54.5175 19.9753C53.2213 19.0854 52.167 18.3116 51.3545 17.6538C50.5613 16.9961 49.8842 16.2416 49.3232 15.3904C48.7622 14.5392 48.4817 13.6106 48.4817 12.6047C48.4817 11.2892 49.004 10.2348 50.0486 9.44166C51.1126 8.62915 52.5829 8.22289 54.4594 8.22289C55.4654 8.22289 56.2392 8.30995 56.7809 8.48406C57.3419 8.63882 58.0964 8.929 59.0443 9.35461C59.4699 9.56741 59.8375 9.67381 60.147 9.67381C60.4565 9.67381 60.6693 9.58675 60.7854 9.41264L60.118 13.4462C60.1567 12.4789 59.9245 11.6277 59.4216 10.8926C58.9379 10.1381 58.2511 9.55773 57.3613 9.15148C56.4907 8.72588 55.5234 8.51308 54.4594 8.51308C53.2213 8.51308 52.225 8.78391 51.4705 9.32559C50.7161 9.84792 50.3388 10.6217 50.3388 11.6471C50.3388 12.4402 50.5806 13.185 51.0643 13.8815C51.5673 14.5779 52.1766 15.2163 52.8924 15.7967C53.6082 16.3577 54.5658 17.0445 55.7652 17.857C56.9647 18.6695 57.9126 19.3562 58.609 19.9173C59.3248 20.4783 59.9245 21.0973 60.4082 21.7744C60.8918 22.4515 61.1336 23.177 61.1336 23.9508C61.1336 25.0922 60.8338 26.0788 60.2341 26.9107C59.6344 27.7425 58.8025 28.3809 57.7385 28.8259C56.6745 29.2515 55.4847 29.4643 54.1692 29.4643ZM76.1381 19.7432C78.1501 19.7432 79.7364 19.2789 80.8971 18.3503C82.0579 17.4217 82.6382 16.0869 82.6382 14.3458C82.6382 12.6047 82.0579 11.2698 80.8971 10.3412C79.7364 9.41264 78.1597 8.94835 76.1672 8.94835L76.1381 8.97737H66.8233V19.7432H70.2764C71.7467 19.7432 72.4818 19.1531 72.4818 17.973V21.8035C72.4818 20.6234 71.7467 20.0333 70.2764 20.0333H66.8233V28.7098H73.4104C74.1455 28.7098 74.842 28.5454 75.4997 28.2165C76.1768 27.8683 76.7282 27.4427 77.1538 26.9397L75.7609 29H62.7317C63.9118 29 64.5018 28.2649 64.5018 26.7946V10.8926C64.5018 9.42232 63.9118 8.68719 62.7317 8.68719H76.5154C78.9916 8.68719 81.0326 9.15148 82.6382 10.0801C84.2633 10.9893 85.0758 12.4112 85.0758 14.3458C85.0758 15.6806 84.6695 16.7736 83.857 17.6248C83.0638 18.476 81.9708 19.1048 80.5779 19.511L84.2633 27.1718C84.5534 27.7716 84.921 28.2262 85.366 28.5357C85.8303 28.8452 86.2462 29 86.6137 29H81.0422C81.758 29 82.1159 28.7001 82.1159 28.1004C82.1159 27.7522 82.0192 27.375 81.8257 26.9687L78.4596 19.9173C77.8986 19.9947 77.2505 20.0333 76.5154 20.0333H76.1381V19.7432ZM96.0374 29.4643C94.335 29.4643 92.8164 29 91.4816 28.0714C90.1467 27.1235 89.1021 25.8467 88.3476 24.241C87.5931 22.6353 87.2159 20.8652 87.2159 18.9306C87.2159 16.9961 87.5931 15.2163 88.3476 13.5913C89.1021 11.9469 90.1467 10.6411 91.4816 9.67381C92.8358 8.70653 94.364 8.22289 96.0665 8.22289C97.7495 8.22289 99.2875 8.70653 100.68 9.67381C102.073 10.6411 103.166 11.9469 103.959 13.5913C104.772 15.2357 105.178 17.0154 105.178 18.9306C105.178 20.8459 104.772 22.616 103.959 24.241C103.166 25.8467 102.073 27.1235 100.68 28.0714C99.2875 29 97.7398 29.4643 96.0374 29.4643ZM89.6534 18.9306C89.6534 20.5557 89.8856 22.1614 90.3498 23.7477C90.8335 25.3147 91.5589 26.6108 92.5262 27.6361C93.4935 28.6615 94.6639 29.1741 96.0374 29.1741C97.411 29.1741 98.6007 28.6615 99.6067 27.6361C100.632 26.5915 101.406 25.2857 101.928 23.7187C102.47 22.1323 102.741 20.5363 102.741 18.9306C102.741 17.4797 102.47 15.9418 101.928 14.3167C101.406 12.6724 100.632 11.2988 99.6067 10.1961C98.6007 9.0741 97.4206 8.51308 96.0665 8.51308C94.6929 8.51308 93.5225 9.0741 92.5552 10.1961C91.588 11.2988 90.8625 12.6627 90.3789 14.2877C89.8952 15.8934 89.6534 17.441 89.6534 18.9306Z" fill="black"/>
<path d="M3.34432 42.4733C3.34432 43.0093 3.55945 43.2773 3.9897 43.2773H1.85255C2.2828 43.2773 2.49793 43.0093 2.49793 42.4733V36.6755C2.49793 36.1394 2.2828 35.8714 1.85255 35.8714H4.27536C5.17818 35.8714 5.9223 36.0407 6.50772 36.3792C7.1002 36.7107 7.39644 37.2292 7.39644 37.9345C7.39644 38.4212 7.24832 38.8197 6.95208 39.13C6.6629 39.4404 6.26438 39.6696 5.75655 39.8177L7.1002 42.6108C7.22011 42.8295 7.36117 42.9952 7.5234 43.1081C7.68562 43.2209 7.83021 43.2773 7.95717 43.2773H5.92583C6.1868 43.2773 6.31728 43.168 6.31728 42.9494C6.31728 42.8224 6.28202 42.6849 6.21149 42.5367L4.98421 39.9658C4.77967 39.994 4.54338 40.0081 4.27536 40.0081H3.34432V42.4733ZM4.13782 39.9023C4.87136 39.9023 5.44973 39.7331 5.87293 39.3945C6.29612 39.056 6.50772 38.5693 6.50772 37.9345C6.50772 37.2997 6.29612 36.813 5.87293 36.4744C5.44973 36.1359 4.87489 35.9666 4.1484 35.9666L4.13782 35.9772H3.34432V39.9023H4.13782ZM12.6709 43.2773C13.1012 43.2773 13.3163 43.0093 13.3163 42.4733V36.6755C13.3163 36.1394 13.1012 35.8714 12.6709 35.8714H17.1886L17.6224 36.5168C17.312 36.1571 16.8818 35.9772 16.3316 35.9772H14.1627V39.2887H15.4217C15.9578 39.2887 16.2258 39.0736 16.2258 38.6433V40.0399C16.2258 39.6096 15.9578 39.3945 15.4217 39.3945H14.1627V43.1715H16.5644C16.8324 43.1715 17.0863 43.1116 17.3261 42.9917C17.573 42.8647 17.774 42.7096 17.9292 42.5262L17.4213 43.2773H12.6709ZM26.94 43.2773C27.2363 43.2773 27.3844 43.1539 27.3844 42.907C27.3844 42.8012 27.3597 42.6849 27.3103 42.5579L26.3053 39.9552C25.5576 39.9694 24.9651 40.1245 24.5278 40.4208C24.0905 40.717 23.7978 41.0767 23.6497 41.4999L23.2582 42.6108C23.223 42.6954 23.2053 42.7907 23.2053 42.8965C23.2053 43.0234 23.2441 43.1186 23.3217 43.1821C23.4063 43.2456 23.5227 43.2773 23.6708 43.2773H22.2743C22.4718 43.2773 22.6481 43.2244 22.8033 43.1186C22.9585 43.0058 23.0748 42.8365 23.1524 42.6108L25.5118 35.8714H25.6176L28.1991 42.6743C28.2766 42.8788 28.393 43.0305 28.5482 43.1292C28.7104 43.228 28.8868 43.2773 29.0772 43.2773H26.94ZM23.8507 40.9286C24.0905 40.6041 24.415 40.3467 24.8241 40.1563C25.2332 39.9658 25.7128 39.8636 26.2629 39.8494L25.1944 37.0775L23.8507 40.9286ZM33.6878 43.2773C34.1181 43.2773 34.3332 43.0093 34.3332 42.4733V36.6755C34.3332 36.1394 34.1181 35.8714 33.6878 35.8714H35.825C35.3947 35.8714 35.1796 36.1394 35.1796 36.6755V43.1715H37.1474C37.4155 43.1715 37.6694 43.1116 37.9092 42.9917C38.1561 42.8647 38.3571 42.7096 38.5123 42.5262L38.0044 43.2773H33.6878ZM49.89 43.2773C50.3202 43.2773 50.5354 43.0093 50.5354 42.4733V36.6755C50.5354 36.1394 50.3202 35.8714 49.89 35.8714H54.4076L54.8414 36.5168C54.531 36.1571 54.1008 35.9772 53.5506 35.9772H51.3818V39.2887H52.6408C53.1768 39.2887 53.4448 39.0736 53.4448 38.6433V40.0399C53.4448 39.6096 53.1768 39.3945 52.6408 39.3945H51.3818V43.1715H53.7834C54.0514 43.1715 54.3053 43.1116 54.5451 42.9917C54.792 42.8647 54.993 42.7096 55.1482 42.5262L54.6404 43.2773H49.89ZM62.2074 43.4466C61.8971 43.4466 61.5867 43.4078 61.2764 43.3302C60.9731 43.2597 60.698 43.161 60.4511 43.034C60.3242 42.9635 60.2008 42.9282 60.0808 42.9282C59.9609 42.9282 59.8693 42.9705 59.8058 43.0552L60.0597 41.4999C60.0738 41.8385 60.1796 42.1488 60.3771 42.4309C60.5816 42.7131 60.8461 42.9353 61.1706 43.0975C61.495 43.2597 61.8406 43.3408 62.2074 43.3408C62.6095 43.3408 62.9515 43.2703 63.2337 43.1292C63.5158 42.9811 63.7239 42.7977 63.8579 42.5791C63.9989 42.3534 64.0695 42.1277 64.0695 41.902C64.0695 41.6762 63.9919 41.4611 63.8367 41.2566C63.6886 41.045 63.5017 40.851 63.276 40.6747C63.0503 40.4983 62.7364 40.2691 62.3344 39.987C61.8618 39.6625 61.4774 39.3804 61.1812 39.1406C60.892 38.9008 60.6451 38.6257 60.4406 38.3154C60.236 38.005 60.1337 37.6665 60.1337 37.2997C60.1337 36.8201 60.3242 36.4357 60.7051 36.1465C61.093 35.8502 61.629 35.7021 62.3132 35.7021C62.68 35.7021 62.9621 35.7339 63.1596 35.7973C63.3642 35.8538 63.6392 35.9596 63.9848 36.1147C64.14 36.1923 64.274 36.2311 64.3869 36.2311C64.4997 36.2311 64.5773 36.1994 64.6196 36.1359L64.3763 37.6065C64.3904 37.2538 64.3058 36.9435 64.1224 36.6755C63.9461 36.4004 63.6957 36.1888 63.3712 36.0407C63.0538 35.8855 62.7011 35.8079 62.3132 35.8079C61.8618 35.8079 61.4986 35.9067 61.2235 36.1042C60.9484 36.2946 60.8109 36.5767 60.8109 36.9505C60.8109 37.2397 60.899 37.5113 61.0754 37.7652C61.2587 38.0191 61.4809 38.2519 61.7419 38.4635C62.0029 38.668 62.352 38.9184 62.7893 39.2147C63.2266 39.5109 63.5722 39.7613 63.8261 39.9658C64.0871 40.1704 64.3058 40.3961 64.4821 40.6429C64.6584 40.8898 64.7466 41.1543 64.7466 41.4364C64.7466 41.8526 64.6373 42.2123 64.4186 42.5156C64.2 42.8189 63.8967 43.0516 63.5087 43.2139C63.1208 43.369 62.687 43.4466 62.2074 43.4466ZM71.2776 43.2773C71.7079 43.2773 71.923 43.0093 71.923 42.4733V35.9772H70.664C70.396 35.9772 70.1385 36.0407 69.8917 36.1676C69.6519 36.2875 69.4544 36.4392 69.2992 36.6226L69.807 35.8714H74.8854L75.3932 36.6226C75.2381 36.4392 75.037 36.2875 74.7902 36.1676C74.5504 36.0407 74.2964 35.9772 74.0284 35.9772H72.7694V42.4733C72.7694 43.0093 72.9845 43.2773 73.4148 43.2773H71.2776ZM83.2335 43.2773C83.5298 43.2773 83.6779 43.1539 83.6779 42.907C83.6779 42.8012 83.6532 42.6849 83.6038 42.5579L82.5987 39.9552C81.8511 39.9694 81.2586 40.1245 80.8213 40.4208C80.384 40.717 80.0913 41.0767 79.9432 41.4999L79.5517 42.6108C79.5165 42.6954 79.4988 42.7907 79.4988 42.8965C79.4988 43.0234 79.5376 43.1186 79.6152 43.1821C79.6998 43.2456 79.8162 43.2773 79.9643 43.2773H78.5678C78.7653 43.2773 78.9416 43.2244 79.0968 43.1186C79.252 43.0058 79.3683 42.8365 79.4459 42.6108L81.8052 35.8714H81.911L84.4925 42.6743C84.5701 42.8788 84.6865 43.0305 84.8417 43.1292C85.0039 43.228 85.1802 43.2773 85.3707 43.2773H83.2335ZM80.1442 40.9286C80.384 40.6041 80.7085 40.3467 81.1175 40.1563C81.5266 39.9658 82.0063 39.8636 82.5564 39.8494L81.4878 37.0775L80.1442 40.9286ZM90.5277 43.2773C90.958 43.2773 91.1731 43.0093 91.1731 42.4733V35.9772H89.9141C89.6461 35.9772 89.3886 36.0407 89.1418 36.1676C88.902 36.2875 88.7045 36.4392 88.5493 36.6226L89.0571 35.8714H94.1355L94.6433 36.6226C94.4882 36.4392 94.2871 36.2875 94.0403 36.1676C93.8005 36.0407 93.5465 35.9772 93.2785 35.9772H92.0195V42.4733C92.0195 43.0093 92.2346 43.2773 92.6649 43.2773H90.5277ZM99.2499 43.2773C99.6801 43.2773 99.8953 43.0093 99.8953 42.4733V36.6755C99.8953 36.1394 99.6801 35.8714 99.2499 35.8714H103.768L104.201 36.5168C103.891 36.1571 103.461 35.9772 102.911 35.9772H100.742V39.2887H102.001C102.537 39.2887 102.805 39.0736 102.805 38.6433V40.0399C102.805 39.6096 102.537 39.3945 102.001 39.3945H100.742V43.1715H103.143C103.411 43.1715 103.665 43.1116 103.905 42.9917C104.152 42.8647 104.353 42.7096 104.508 42.5262L104 43.2773H99.2499Z" fill="black"/>
</svg>
